<svg width="421" height="79" viewBox="0 0 421 79" fill="none" xmlns="http://www.w3.org/2000/svg">
<path d="M0.00177577 77V4.27273H45.1012V13.7188H10.9748V35.8778H41.8697V45.2884H10.9748V77H0.00177577ZM50.7433 77V22.4545H61.3612V77H50.7433ZM56.1055 14.0384C54.2589 14.0384 52.6727 13.4228 51.3469 12.1918C50.0449 10.937 49.3938 9.44555 49.3938 7.71733C49.3938 5.96543 50.0449 4.47396 51.3469 3.24289C52.6727 1.98816 54.2589 1.36079 56.1055 1.36079C57.9521 1.36079 59.5264 1.98816 60.8285 3.24289C62.1542 4.47396 62.8171 5.96543 62.8171 7.71733C62.8171 9.44555 62.1542 10.937 60.8285 12.1918C59.5264 13.4228 57.9521 14.0384 56.1055 14.0384ZM79.2635 44.6136V77H68.6456V22.4545H78.8374V31.3324H79.5121C80.7668 28.4441 82.7318 26.1241 85.407 24.3722C88.1058 22.6203 91.5031 21.7443 95.5987 21.7443C99.3156 21.7443 102.571 22.5256 105.364 24.0881C108.158 25.6269 110.324 27.9233 111.863 30.9773C113.402 34.0312 114.171 37.8073 114.171 42.3054V77H103.553V43.5838C103.553 39.6302 102.523 36.5407 100.464 34.3153C98.4041 32.0663 95.575 30.9418 91.9766 30.9418C89.5144 30.9418 87.3246 31.4744 85.407 32.5398C83.513 33.6051 82.0097 35.1676 80.897 37.2273C79.808 39.2633 79.2635 41.7254 79.2635 44.6136ZM121.411 77V22.4545H132.029V77H121.411ZM126.773 14.0384C124.927 14.0384 123.341 13.4228 122.015 12.1918C120.713 10.937 120.062 9.44555 120.062 7.71733C120.062 5.96543 120.713 4.47396 122.015 3.24289C123.341 1.98816 124.927 1.36079 126.773 1.36079C128.62 1.36079 130.194 1.98816 131.496 3.24289C132.822 4.47396 133.485 5.96543 133.485 7.71733C133.485 9.44555 132.822 10.937 131.496 12.1918C130.194 13.4228 128.62 14.0384 126.773 14.0384ZM164.775 22.4545V30.9773H134.981V22.4545H164.775ZM142.971 9.38636H153.589V60.9844C153.589 63.044 153.897 64.5947 154.512 65.6364C155.128 66.6544 155.921 67.3527 156.892 67.7315C157.886 68.0866 158.963 68.2642 160.123 68.2642C160.975 68.2642 161.721 68.205 162.36 68.0866C163 67.9683 163.497 67.8736 163.852 67.8026L165.77 76.5739C165.154 76.8106 164.278 77.0473 163.142 77.2841C162.005 77.5445 160.585 77.6866 158.88 77.7102C156.087 77.7576 153.483 77.2604 151.068 76.2188C148.653 75.1771 146.7 73.5672 145.208 71.3892C143.717 69.2112 142.971 66.4768 142.971 63.1861V9.38636ZM192.443 78.1009C187.069 78.1009 182.441 76.9527 178.558 74.6562C174.699 72.3362 171.716 69.081 169.609 64.8906C167.526 60.6766 166.484 55.7405 166.484 50.0824C166.484 44.4953 167.526 39.571 169.609 35.3097C171.716 31.0483 174.652 27.7221 178.416 25.331C182.204 22.9399 186.631 21.7443 191.697 21.7443C194.775 21.7443 197.758 22.2533 200.646 23.2713C203.535 24.2893 206.127 25.8873 208.423 28.0653C210.72 30.2434 212.531 33.0724 213.857 36.5526C215.182 40.009 215.845 44.2112 215.845 49.1591V52.9233H172.486V44.9688H205.44C205.44 42.1752 204.872 39.7012 203.736 37.5469C202.599 35.3688 201.001 33.6525 198.942 32.3977C196.906 31.143 194.515 30.5156 191.768 30.5156C188.786 30.5156 186.181 31.2495 183.956 32.7173C181.754 34.1615 180.05 36.0554 178.842 38.3991C177.659 40.7192 177.067 43.2405 177.067 45.9631V52.1776C177.067 55.8234 177.706 58.9247 178.984 61.4815C180.286 64.0384 182.098 65.9915 184.418 67.3409C186.738 68.6667 189.448 69.3295 192.55 69.3295C194.562 69.3295 196.397 69.0455 198.054 68.4773C199.711 67.8854 201.143 67.0095 202.351 65.8494C203.558 64.6894 204.482 63.2571 205.121 61.5526L215.17 63.3636C214.366 66.3229 212.921 68.9152 210.838 71.1406C208.778 73.3423 206.186 75.0587 203.061 76.2898C199.96 77.4972 196.42 78.1009 192.443 78.1009ZM372.012 4.27273L389.412 32.7173H389.98L407.381 4.27273H420.094L397.438 40.6364L420.236 77H407.452L389.98 48.946H389.412L371.941 77H359.157L382.346 40.6364L359.299 4.27273H372.012Z" fill="#B4B4B4"/>
<path d="M245.022 77H221.478V4.27273H245.768C252.894 4.27273 259.014 5.72869 264.127 8.64062C269.241 11.5289 273.159 15.6837 275.882 21.1051C278.628 26.5028 280.001 32.9777 280.001 40.5298C280.001 48.1056 278.616 54.616 275.846 60.0611C273.1 65.5062 269.123 69.6965 263.914 72.6321C258.706 75.544 252.409 77 245.022 77ZM232.451 67.4119H244.419C249.958 67.4119 254.563 66.3703 258.233 64.2869C261.902 62.1799 264.648 59.1378 266.471 55.1605C268.294 51.1596 269.206 46.2827 269.206 40.5298C269.206 34.8243 268.294 29.983 266.471 26.0057C264.672 22.0284 261.985 19.0099 258.41 16.9503C254.835 14.8906 250.396 13.8608 245.093 13.8608H232.451V67.4119ZM285.794 77V22.4545H296.412V77H285.794ZM291.156 14.0384C289.31 14.0384 287.723 13.4228 286.398 12.1918C285.096 10.937 284.445 9.44555 284.445 7.71733C284.445 5.96543 285.096 4.47396 286.398 3.24289C287.723 1.98816 289.31 1.36079 291.156 1.36079C293.003 1.36079 294.577 1.98816 295.879 3.24289C297.205 4.47396 297.868 5.96543 297.868 7.71733C297.868 9.44555 297.205 10.937 295.879 12.1918C294.577 13.4228 293.003 14.0384 291.156 14.0384ZM329.655 22.4545V30.9773H298.831V22.4545H329.655ZM307.283 77V16.1335C307.283 12.7244 308.029 9.89536 309.52 7.64631C311.012 5.37358 312.989 3.68087 315.451 2.56818C317.913 1.43181 320.588 0.863631 323.476 0.863631C325.607 0.863631 327.43 1.04119 328.945 1.39631C330.46 1.72774 331.585 2.03551 332.319 2.3196L329.833 10.9134C329.336 10.7713 328.696 10.6056 327.915 10.4162C327.134 10.2031 326.187 10.0966 325.074 10.0966C322.494 10.0966 320.647 10.7358 319.534 12.0142C318.445 13.2926 317.901 15.1392 317.901 17.554V77H307.283ZM359.569 22.4545V30.9773H328.745V22.4545H359.569ZM337.197 77V16.1335C337.197 12.7244 337.943 9.89536 339.434 7.64631C340.926 5.37358 342.903 3.68087 345.365 2.56818C347.827 1.43181 350.502 0.863631 353.39 0.863631C355.521 0.863631 357.344 1.04119 358.859 1.39631C360.374 1.72774 361.499 2.03551 362.233 2.3196L359.747 10.9134C359.25 10.7713 358.61 10.6056 357.829 10.4162C357.048 10.2031 356.101 10.0966 354.988 10.0966C352.408 10.0966 350.561 10.7358 349.449 12.0142C348.359 13.2926 347.815 15.1392 347.815 17.554V77H337.197Z" fill="#929292"/>
</svg>
