<svg width="234" height="203" viewBox="0 0 234 203" fill="none" xmlns="http://www.w3.org/2000/svg">
<path d="M7.49361 97V24.2727H54.0845V35.3168H20.6683V55.0611H50.8885V66.1051H20.6683V97H7.49361ZM58.5192 97V42.4545H71.3743V97H58.5192ZM64.9822 34.7131C62.9463 34.7131 61.1944 34.0384 59.7266 32.6889C58.2588 31.3158 57.5249 29.6705 57.5249 27.7528C57.5249 25.8116 58.2588 24.1662 59.7266 22.8168C61.1944 21.4437 62.9463 20.7571 64.9822 20.7571C67.0419 20.7571 68.7938 21.4437 70.2379 22.8168C71.7057 24.1662 72.4396 25.8116 72.4396 27.7528C72.4396 29.6705 71.7057 31.3158 70.2379 32.6889C68.7938 34.0384 67.0419 34.7131 64.9822 34.7131ZM90.4485 65.0398V97H77.5934V42.4545H89.8803V51.723H90.5195C91.7743 48.669 93.7747 46.2424 96.521 44.4432C99.2908 42.6439 102.712 41.7443 106.784 41.7443C110.548 41.7443 113.827 42.5492 116.62 44.1591C119.438 45.7689 121.616 48.1009 123.154 51.1548C124.717 54.2088 125.486 57.9138 125.463 62.2699V97H112.608V64.2585C112.608 60.6127 111.661 57.7599 109.767 55.7003C107.896 53.6406 105.304 52.6108 101.99 52.6108C99.7406 52.6108 97.7402 53.108 95.9883 54.1023C94.2601 55.0729 92.8988 56.4815 91.9045 58.3281C90.9338 60.1747 90.4485 62.4119 90.4485 65.0398ZM131.531 97V42.4545H144.386V97H131.531ZM137.994 34.7131C135.958 34.7131 134.206 34.0384 132.738 32.6889C131.27 31.3158 130.537 29.6705 130.537 27.7528C130.537 25.8116 131.27 24.1662 132.738 22.8168C134.206 21.4437 135.958 20.7571 137.994 20.7571C140.054 20.7571 141.806 21.4437 143.25 22.8168C144.717 24.1662 145.451 25.8116 145.451 27.7528C145.451 29.6705 144.717 31.3158 143.25 32.6889C141.806 34.0384 140.054 34.7131 137.994 34.7131ZM177.842 42.4545V52.3977H146.486V42.4545H177.842ZM154.227 29.3864H167.082V80.5938C167.082 82.322 167.343 83.6477 167.864 84.571C168.408 85.4706 169.118 86.0862 169.994 86.4176C170.87 86.7491 171.841 86.9148 172.906 86.9148C173.711 86.9148 174.445 86.8556 175.108 86.7372C175.795 86.6188 176.315 86.5123 176.67 86.4176L178.837 96.4673C178.15 96.7041 177.168 96.9645 175.889 97.2486C174.634 97.5327 173.096 97.6984 171.273 97.7457C168.053 97.8404 165.153 97.3551 162.572 96.2898C159.992 95.2008 157.944 93.5199 156.429 91.2472C154.938 88.9744 154.204 86.1335 154.227 82.7244V29.3864ZM205.155 98.0653C199.686 98.0653 194.963 96.929 190.986 94.6562C187.033 92.3598 183.99 89.1165 181.86 84.9261C179.729 80.7121 178.664 75.7524 178.664 70.0469C178.664 64.4361 179.729 59.5118 181.86 55.2741C184.014 51.0128 187.021 47.6984 190.88 45.331C194.739 42.9399 199.272 41.7443 204.48 41.7443C207.842 41.7443 211.015 42.2888 213.998 43.3778C217.004 44.4432 219.656 46.1004 221.952 48.3494C224.272 50.5985 226.095 53.4631 227.421 56.9432C228.747 60.3996 229.409 64.5189 229.409 69.3011V73.2429H184.701V64.5781H217.087C217.063 62.116 216.531 59.9261 215.489 58.0085C214.447 56.0672 212.991 54.5402 211.121 53.4276C209.275 52.3149 207.12 51.7585 204.658 51.7585C202.03 51.7585 199.722 52.3977 197.733 53.6761C195.745 54.9309 194.194 56.5881 193.081 58.6477C191.992 60.6837 191.436 62.9209 191.412 65.3594V72.9233C191.412 76.0956 191.992 78.8182 193.152 81.0909C194.312 83.34 195.934 85.0682 198.017 86.2756C200.101 87.4593 202.539 88.0511 205.333 88.0511C207.203 88.0511 208.896 87.7907 210.411 87.2699C211.926 86.7254 213.24 85.9323 214.353 84.8906C215.465 83.849 216.306 82.5587 216.874 81.0199L228.877 82.3693C228.119 85.5417 226.675 88.3116 224.544 90.679C222.437 93.0227 219.739 94.8456 216.448 96.1477C213.157 97.4261 209.393 98.0653 205.155 98.0653Z" fill="#B4B4B4"/>
<path d="M33.8553 179H9.2104V106.273H34.3525C41.5731 106.273 47.7757 107.729 52.9604 110.641C58.1687 113.529 62.1697 117.684 64.9632 123.105C67.7568 128.527 69.1536 135.013 69.1536 142.565C69.1536 150.141 67.745 156.652 64.9277 162.097C62.1342 167.542 58.0977 171.72 52.8184 174.632C47.5627 177.544 41.2417 179 33.8553 179ZM22.3851 167.601H33.2161C38.2824 167.601 42.5082 166.678 45.8936 164.831C49.2791 162.961 51.824 160.179 53.5286 156.486C55.2331 152.769 56.0854 148.129 56.0854 142.565C56.0854 137.002 55.2331 132.385 53.5286 128.716C51.824 125.023 49.3027 122.265 45.9647 120.442C42.6503 118.595 38.531 117.672 33.6067 117.672H22.3851V167.601ZM74.1032 179V124.455H86.9583V179H74.1032ZM80.5662 116.713C78.5302 116.713 76.7783 116.038 75.3105 114.689C73.8427 113.316 73.1088 111.67 73.1088 109.753C73.1088 107.812 73.8427 106.166 75.3105 104.817C76.7783 103.444 78.5302 102.757 80.5662 102.757C82.6259 102.757 84.3778 103.444 85.8219 104.817C87.2897 106.166 88.0236 107.812 88.0236 109.753C88.0236 111.67 87.2897 113.316 85.8219 114.689C84.3778 116.038 82.6259 116.713 80.5662 116.713ZM120.805 124.455V134.398H88.5609V124.455H120.805ZM96.622 179V119.305C96.622 115.636 97.3796 112.582 98.8947 110.143C100.434 107.705 102.493 105.882 105.074 104.675C107.654 103.467 110.519 102.864 113.667 102.864C115.893 102.864 117.87 103.041 119.598 103.396C121.326 103.751 122.604 104.071 123.433 104.355L120.876 114.298C120.332 114.133 119.645 113.967 118.817 113.801C117.988 113.612 117.065 113.517 116.047 113.517C113.656 113.517 111.963 114.097 110.969 115.257C109.998 116.393 109.513 118.027 109.513 120.158V179H96.622ZM151.501 124.455V134.398H119.256V124.455H151.501ZM127.317 179V119.305C127.317 115.636 128.075 112.582 129.59 110.143C131.129 107.705 133.189 105.882 135.769 104.675C138.349 103.467 141.214 102.864 144.363 102.864C146.588 102.864 148.565 103.041 150.293 103.396C152.021 103.751 153.3 104.071 154.128 104.355L151.572 114.298C151.027 114.133 150.34 113.967 149.512 113.801C148.683 113.612 147.76 113.517 146.742 113.517C144.351 113.517 142.658 114.097 141.664 115.257C140.693 116.393 140.208 118.027 140.208 120.158V179H127.317Z" fill="#B4B4B4"/>
<path d="M171.66 106.273L187.676 132.906H188.244L204.331 106.273H219.352L196.944 142.636L219.707 179H204.437L188.244 152.544H187.676L171.483 179H156.284L179.26 142.636L156.568 106.273H171.66Z" fill="#646464"/>
</svg>
