<svg xmlns="http://www.w3.org/2000/svg" width="601" height="303" fill="none" viewBox="0 0 601 303"><path stroke="#000" stroke-width="18" d="M9 143.119h236v57.191H9z"/><path stroke="#4B4B4B" stroke-width="18" d="M172.56 34v236h-57.191V34z"/><path fill="#B4B4B4" d="M342.423 105.636v28.409h-84.162v-28.409h84.162ZM277.526 242V95.782c0-9.884 1.924-18.081 5.771-24.592 3.906-6.51 9.233-11.393 15.98-14.648 6.747-3.255 14.412-4.883 22.994-4.883 5.8 0 11.097.444 15.891 1.332 4.853.888 8.463 1.687 10.831 2.397l-6.747 28.409c-1.48-.474-3.315-.918-5.505-1.332a34.332 34.332 0 0 0-6.569-.621c-5.564 0-9.44 1.302-11.63 3.906-2.19 2.545-3.285 6.126-3.285 10.742V242h-37.731Zm109.618 2.219c-10.358 0-19.739-2.663-28.143-7.99-8.345-5.385-14.974-13.287-19.886-23.703-4.854-10.476-7.28-23.32-7.28-38.53 0-15.625 2.515-28.617 7.546-38.974 5.031-10.417 11.719-18.2 20.064-23.349 8.404-5.208 17.607-7.812 27.61-7.812 7.635 0 13.997 1.302 19.087 3.906 5.149 2.545 9.292 5.741 12.429 9.588 3.196 3.788 5.623 7.517 7.28 11.186h1.154v-68.36h37.731V242h-37.287v-21.839h-1.598c-1.776 3.787-4.291 7.546-7.546 11.274-3.196 3.67-7.369 6.718-12.518 9.145-5.09 2.426-11.304 3.639-18.643 3.639Zm11.985-30.095c6.096 0 11.245-1.658 15.447-4.972 4.262-3.374 7.517-8.079 9.766-14.116 2.308-6.037 3.462-13.109 3.462-21.218 0-8.108-1.124-15.151-3.373-21.129-2.249-5.978-5.505-10.594-9.766-13.85-4.261-3.255-9.44-4.882-15.536-4.882-6.215 0-11.453 1.686-15.714 5.06-4.261 3.374-7.487 8.049-9.677 14.027-2.19 5.978-3.285 12.902-3.285 20.774 0 7.931 1.095 14.945 3.285 21.041 2.249 6.037 5.475 10.771 9.677 14.204 4.261 3.374 9.499 5.061 15.714 5.061Zm104.557-108.488 25.035 47.674 25.657-47.674h38.796l-39.506 68.182L594.24 242h-38.619l-26.9-47.141L502.265 242h-39.062l40.483-68.182-39.063-68.182h39.063Z"/></svg>